<svg xmlns="http://www.w3.org/2000/svg" viewBox="533.311 1155 13.278 13"><defs><style>.a{fill:#d1d1d1;}</style></defs><path class="a" d="M11.453,5.235l-.335-.8a14.456,14.456,0,0,0,.711-1.827L10.8,1.6a14.267,14.267,0,0,0-1.832.734L8.153,2.01A14.339,14.339,0,0,0,7.337.226H5.88a13.519,13.519,0,0,0-.765,1.787L4.3,2.342a15.03,15.03,0,0,0-1.866-.7L1.408,2.656a13.61,13.61,0,0,0,.749,1.793l-.335.8A15.2,15.2,0,0,0,0,6.041V7.469a14.106,14.106,0,0,0,1.826.75l.335.794a14.533,14.533,0,0,0-.712,1.826l1.032,1.01a14.515,14.515,0,0,0,1.831-.735l.812.329a14.242,14.242,0,0,0,.816,1.782H7.4a13.6,13.6,0,0,0,.765-1.787l.813-.329a15.146,15.146,0,0,0,1.863.7L11.871,10.8A13.463,13.463,0,0,0,11.121,9l.335-.8a15.032,15.032,0,0,0,1.822-.8V5.983A14.123,14.123,0,0,0,11.453,5.235ZM8.768,6.726A2.129,2.129,0,1,1,6.639,4.644,2.109,2.109,0,0,1,8.768,6.726Z" transform="translate(533.311 1154.774)"/></svg>